<svg width="316" height="178" viewBox="0 0 316 178" fill="none" xmlns="http://www.w3.org/2000/svg">
<path d="M20 0.5L296 0.5C306.77 0.5 315.5 9.23045 315.5 20V158C315.5 168.77 306.77 177.5 296 177.5H20C9.23045 177.5 0.5 168.77 0.5 158L0.5 20C0.5 9.23045 9.23045 0.5 20 0.5Z" fill="black"/>
<path d="M20 0.5L296 0.5C306.77 0.5 315.5 9.23045 315.5 20V158C315.5 168.77 306.77 177.5 296 177.5H20C9.23045 177.5 0.5 168.77 0.5 158L0.5 20C0.5 9.23045 9.23045 0.5 20 0.5Z" stroke="#252B37"/>
<path d="M31.4 62.44C27.5333 62.44 24.1867 61.1867 21.36 58.68L24.48 55.04C25.68 56.0533 26.84 56.7867 27.96 57.24C29.08 57.6933 30.3067 57.92 31.64 57.92C32.7333 57.92 33.68 57.72 34.48 57.32C35.28 56.92 35.9067 56.36 36.36 55.64C36.84 54.92 37.08 54.08 37.08 53.12C37.08 51.76 36.5467 50.64 35.48 49.76C34.44 48.88 33.08 48.44 31.4 48.44C30.5733 48.44 29.7467 48.56 28.92 48.8C28.0933 49.04 27.24 49.4 26.36 49.88L22.64 48.76L23.28 34H40.92V38.48H27.88L27.56 45.56C28.5467 45.08 29.48 44.76 30.36 44.6C31.2667 44.44 32.16 44.36 33.04 44.36C34.9333 44.36 36.5733 44.72 37.96 45.44C39.3733 46.1333 40.4667 47.12 41.24 48.4C42.0133 49.68 42.4 51.1733 42.4 52.88C42.4 54.7733 41.9333 56.44 41 57.88C40.0933 59.32 38.8133 60.44 37.16 61.24C35.5067 62.04 33.5867 62.44 31.4 62.44ZM48.0281 62.4C47.1481 62.4 46.3881 62.08 45.7481 61.44C45.1081 60.8 44.7881 60.04 44.7881 59.16C44.7881 58.2533 45.1081 57.48 45.7481 56.84C46.3881 56.2 47.1481 55.88 48.0281 55.88C48.9081 55.88 49.6681 56.2 50.3081 56.84C50.9481 57.48 51.2681 58.2533 51.2681 59.16C51.2681 60.04 50.9481 60.8 50.3081 61.44C49.6681 62.08 48.9081 62.4 48.0281 62.4ZM65.1269 62.44C62.7002 62.44 60.5535 61.84 58.6869 60.64C56.8469 59.4133 55.4069 57.72 54.3669 55.56C53.3535 53.3733 52.8469 50.8533 52.8469 48C52.8469 45.12 53.3535 42.6 54.3669 40.44C55.4069 38.28 56.8469 36.6 58.6869 35.4C60.5535 34.1733 62.7002 33.56 65.1269 33.56C67.5802 33.56 69.7269 34.1733 71.5669 35.4C73.4335 36.6 74.8735 38.28 75.8869 40.44C76.9269 42.6 77.4469 45.12 77.4469 48C77.4469 50.8533 76.9269 53.3733 75.8869 55.56C74.8735 57.72 73.4335 59.4133 71.5669 60.64C69.7269 61.84 67.5802 62.44 65.1269 62.44ZM65.1269 57.68C66.5669 57.68 67.8069 57.2933 68.8469 56.52C69.8869 55.7467 70.6869 54.6267 71.2469 53.16C71.8335 51.6933 72.1269 49.9733 72.1269 48C72.1269 46 71.8335 44.28 71.2469 42.84C70.6869 41.3733 69.8869 40.2533 68.8469 39.48C67.8069 38.7067 66.5669 38.32 65.1269 38.32C63.7135 38.32 62.4869 38.7067 61.4469 39.48C60.4069 40.2533 59.5935 41.3733 59.0069 42.84C58.4469 44.28 58.1669 46 58.1669 48C58.1669 49.9733 58.4469 51.6933 59.0069 53.16C59.5935 54.6267 60.4069 55.7467 61.4469 56.52C62.4869 57.2933 63.7135 57.68 65.1269 57.68Z" fill="#FDFDFD"/>
<path d="M36 107.033L30.4666 110.367C30.2222 110.522 29.9666 110.589 29.7 110.567C29.4333 110.544 29.2 110.455 29 110.3C28.8 110.144 28.6444 109.95 28.5333 109.717C28.4222 109.484 28.4 109.223 28.4666 108.933L29.9333 102.633L25.0333 98.3999C24.8111 98.1999 24.6724 97.9719 24.6173 97.7159C24.5622 97.4599 24.5786 97.2102 24.6666 96.9666C24.7546 96.723 24.888 96.523 25.0666 96.3666C25.2453 96.2102 25.4897 96.1102 25.8 96.0666L32.2666 95.4999L34.7666 89.5666C34.8777 89.2999 35.0502 89.0999 35.284 88.9666C35.5177 88.8333 35.7564 88.7666 36 88.7666C36.2435 88.7666 36.4822 88.8333 36.716 88.9666C36.9497 89.0999 37.1222 89.2999 37.2333 89.5666L39.7333 95.4999L46.1999 96.0666C46.5111 96.111 46.7555 96.211 46.9333 96.3666C47.1111 96.5222 47.2444 96.7222 47.3333 96.9666C47.4222 97.211 47.4391 97.4613 47.3839 97.7173C47.3288 97.9733 47.1897 98.2008 46.9666 98.3999L42.0666 102.633L43.5333 108.933C43.6 109.222 43.5777 109.483 43.4666 109.717C43.3555 109.951 43.2 110.145 43 110.3C42.8 110.455 42.5666 110.543 42.3 110.567C42.0333 110.59 41.7777 110.523 41.5333 110.367L36 107.033Z" fill="#F3993F"/>
<path d="M68 107.033L62.4666 110.367C62.2222 110.522 61.9666 110.589 61.7 110.567C61.4333 110.544 61.2 110.455 61 110.3C60.8 110.144 60.6444 109.95 60.5333 109.717C60.4222 109.484 60.4 109.223 60.4666 108.933L61.9333 102.633L57.0333 98.3999C56.8111 98.1999 56.6724 97.9719 56.6173 97.7159C56.5622 97.4599 56.5786 97.2102 56.6666 96.9666C56.7546 96.723 56.888 96.523 57.0666 96.3666C57.2453 96.2102 57.4897 96.1102 57.8 96.0666L64.2666 95.4999L66.7666 89.5666C66.8777 89.2999 67.0502 89.0999 67.284 88.9666C67.5177 88.8333 67.7564 88.7666 68 88.7666C68.2435 88.7666 68.4822 88.8333 68.716 88.9666C68.9497 89.0999 69.1222 89.2999 69.2333 89.5666L71.7333 95.4999L78.1999 96.0666C78.5111 96.111 78.7555 96.211 78.9333 96.3666C79.1111 96.5222 79.2444 96.7222 79.3333 96.9666C79.4222 97.211 79.4391 97.4613 79.3839 97.7173C79.3288 97.9733 79.1897 98.2008 78.9666 98.3999L74.0666 102.633L75.5333 108.933C75.6 109.222 75.5777 109.483 75.4666 109.717C75.3555 109.951 75.2 110.145 75 110.3C74.8 110.455 74.5666 110.543 74.3 110.567C74.0333 110.59 73.7777 110.523 73.5333 110.367L68 107.033Z" fill="#F3993F"/>
<path d="M100 107.033L94.4666 110.367C94.2222 110.522 93.9666 110.589 93.7 110.567C93.4333 110.544 93.2 110.455 93 110.3C92.8 110.144 92.6444 109.95 92.5333 109.717C92.4222 109.484 92.4 109.223 92.4666 108.933L93.9333 102.633L89.0333 98.3999C88.8111 98.1999 88.6724 97.9719 88.6173 97.7159C88.5622 97.4599 88.5786 97.2102 88.6666 96.9666C88.7546 96.723 88.888 96.523 89.0666 96.3666C89.2453 96.2102 89.4897 96.1102 89.8 96.0666L96.2666 95.4999L98.7666 89.5666C98.8777 89.2999 99.0502 89.0999 99.284 88.9666C99.5177 88.8333 99.7564 88.7666 100 88.7666C100.244 88.7666 100.482 88.8333 100.716 88.9666C100.95 89.0999 101.122 89.2999 101.233 89.5666L103.733 95.4999L110.2 96.0666C110.511 96.111 110.756 96.211 110.933 96.3666C111.111 96.5222 111.244 96.7222 111.333 96.9666C111.422 97.211 111.439 97.4613 111.384 97.7173C111.329 97.9733 111.19 98.2008 110.967 98.3999L106.067 102.633L107.533 108.933C107.6 109.222 107.578 109.483 107.467 109.717C107.356 109.951 107.2 110.145 107 110.3C106.8 110.455 106.567 110.543 106.3 110.567C106.033 110.59 105.778 110.523 105.533 110.367L100 107.033Z" fill="#F3993F"/>
<path d="M132 107.033L126.467 110.367C126.222 110.522 125.967 110.589 125.7 110.567C125.433 110.544 125.2 110.455 125 110.3C124.8 110.144 124.644 109.95 124.533 109.717C124.422 109.484 124.4 109.223 124.467 108.933L125.933 102.633L121.033 98.3999C120.811 98.1999 120.672 97.9719 120.617 97.7159C120.562 97.4599 120.579 97.2102 120.667 96.9666C120.755 96.723 120.888 96.523 121.067 96.3666C121.245 96.2102 121.49 96.1102 121.8 96.0666L128.267 95.4999L130.767 89.5666C130.878 89.2999 131.05 89.0999 131.284 88.9666C131.518 88.8333 131.756 88.7666 132 88.7666C132.244 88.7666 132.482 88.8333 132.716 88.9666C132.95 89.0999 133.122 89.2999 133.233 89.5666L135.733 95.4999L142.2 96.0666C142.511 96.111 142.756 96.211 142.933 96.3666C143.111 96.5222 143.244 96.7222 143.333 96.9666C143.422 97.211 143.439 97.4613 143.384 97.7173C143.329 97.9733 143.19 98.2008 142.967 98.3999L138.067 102.633L139.533 108.933C139.6 109.222 139.578 109.483 139.467 109.717C139.356 109.951 139.2 110.145 139 110.3C138.8 110.455 138.567 110.543 138.3 110.567C138.033 110.59 137.778 110.523 137.533 110.367L132 107.033Z" fill="#F3993F"/>
<path d="M164 107.033L158.467 110.367C158.222 110.522 157.967 110.589 157.7 110.567C157.433 110.544 157.2 110.455 157 110.3C156.8 110.144 156.644 109.95 156.533 109.717C156.422 109.484 156.4 109.223 156.467 108.933L157.933 102.633L153.033 98.3999C152.811 98.1999 152.672 97.9719 152.617 97.7159C152.562 97.4599 152.579 97.2102 152.667 96.9666C152.755 96.723 152.888 96.523 153.067 96.3666C153.245 96.2102 153.49 96.1102 153.8 96.0666L160.267 95.4999L162.767 89.5666C162.878 89.2999 163.05 89.0999 163.284 88.9666C163.518 88.8333 163.756 88.7666 164 88.7666C164.244 88.7666 164.482 88.8333 164.716 88.9666C164.95 89.0999 165.122 89.2999 165.233 89.5666L167.733 95.4999L174.2 96.0666C174.511 96.111 174.756 96.211 174.933 96.3666C175.111 96.5222 175.244 96.7222 175.333 96.9666C175.422 97.211 175.439 97.4613 175.384 97.7173C175.329 97.9733 175.19 98.2008 174.967 98.3999L170.067 102.633L171.533 108.933C171.6 109.222 171.578 109.483 171.467 109.717C171.356 109.951 171.2 110.145 171 110.3C170.8 110.455 170.567 110.543 170.3 110.567C170.033 110.59 169.778 110.523 169.533 110.367L164 107.033Z" fill="#F3993F"/>
<path d="M21.42 148V134H24.24L28.62 142.96L33 134H35.8V148H33.82V136.56L28.6 147L23.38 136.56V148H21.42ZM41.4313 148.18C40.6979 148.18 40.0513 148.053 39.4913 147.8C38.9313 147.533 38.4913 147.167 38.1713 146.7C37.8513 146.233 37.6912 145.693 37.6912 145.08C37.6912 144.12 38.0579 143.367 38.7913 142.82C39.5246 142.26 40.5313 141.98 41.8113 141.98C42.8113 141.98 43.7379 142.173 44.5913 142.56V141.48C44.5913 140.747 44.3779 140.2 43.9513 139.84C43.5379 139.48 42.9246 139.3 42.1113 139.3C41.6446 139.3 41.1579 139.373 40.6513 139.52C40.1446 139.653 39.5779 139.867 38.9513 140.16L38.2113 138.66C38.9846 138.3 39.7046 138.04 40.3713 137.88C41.0379 137.707 41.7113 137.62 42.3913 137.62C43.7113 137.62 44.7313 137.933 45.4513 138.56C46.1846 139.187 46.5513 140.08 46.5513 141.24V148H44.5913V147.12C44.1379 147.48 43.6513 147.747 43.1313 147.92C42.6113 148.093 42.0446 148.18 41.4313 148.18ZM39.6113 145.04C39.6113 145.533 39.8179 145.933 40.2313 146.24C40.6579 146.533 41.2113 146.68 41.8913 146.68C42.4246 146.68 42.9113 146.607 43.3513 146.46C43.8046 146.3 44.2179 146.053 44.5913 145.72V144C44.2046 143.773 43.7979 143.613 43.3713 143.52C42.9579 143.413 42.4913 143.36 41.9713 143.36C41.2379 143.36 40.6579 143.513 40.2313 143.82C39.8179 144.113 39.6113 144.52 39.6113 145.04ZM48.8558 148V137.82H50.8558V138.86C51.6424 138.033 52.6624 137.62 53.9158 137.62C54.7024 137.62 55.3891 137.787 55.9758 138.12C56.5758 138.453 57.0424 138.92 57.3758 139.52C57.7224 140.12 57.8958 140.813 57.8958 141.6V148H55.8958V141.94C55.8958 141.14 55.6691 140.513 55.2158 140.06C54.7758 139.593 54.1558 139.36 53.3558 139.36C52.8224 139.36 52.3424 139.473 51.9158 139.7C51.4891 139.927 51.1358 140.253 50.8558 140.68V148H48.8558ZM60.6881 152.3C60.4748 152.3 60.2748 152.287 60.0881 152.26C59.9015 152.247 59.7481 152.22 59.6281 152.18V150.42C59.8681 150.473 60.1615 150.5 60.5081 150.5C61.4415 150.5 62.1148 150 62.5281 149L62.9681 148.02L58.8881 137.82H61.1081L64.0681 145.58L67.3481 137.82H69.5081L64.5881 149.26C64.2681 149.98 63.9281 150.56 63.5681 151C63.2081 151.453 62.7948 151.78 62.3281 151.98C61.8615 152.193 61.3148 152.3 60.6881 152.3ZM81.91 148.22C80.87 148.22 79.9033 148.04 79.01 147.68C78.13 147.307 77.35 146.793 76.67 146.14C76.0033 145.473 75.4833 144.707 75.11 143.84C74.75 142.96 74.57 142.013 74.57 141C74.57 139.987 74.75 139.047 75.11 138.18C75.4833 137.3 76.0033 136.533 76.67 135.88C77.35 135.213 78.1367 134.7 79.03 134.34C79.9233 133.967 80.8833 133.78 81.91 133.78C82.6433 133.78 83.3567 133.88 84.05 134.08C84.7567 134.267 85.4033 134.54 85.99 134.9C86.59 135.26 87.11 135.693 87.55 136.2L86.15 137.64C85.63 137.013 84.9967 136.54 84.25 136.22C83.5033 135.887 82.7233 135.72 81.91 135.72C81.1633 135.72 80.47 135.853 79.83 136.12C79.2033 136.387 78.6567 136.76 78.19 137.24C77.7233 137.707 77.3567 138.26 77.09 138.9C76.8367 139.54 76.71 140.24 76.71 141C76.71 141.747 76.8367 142.44 77.09 143.08C77.3567 143.72 77.73 144.28 78.21 144.76C78.69 145.24 79.25 145.613 79.89 145.88C80.53 146.147 81.2233 146.28 81.97 146.28C82.7833 146.28 83.55 146.12 84.27 145.8C85.0033 145.467 85.6233 145 86.13 144.4L87.51 145.8C87.0433 146.293 86.51 146.727 85.91 147.1C85.3233 147.46 84.6833 147.74 83.99 147.94C83.31 148.127 82.6167 148.22 81.91 148.22ZM89.3245 148V134L91.3245 133.62V148H89.3245ZM93.68 148V137.82H95.68V148H93.68ZM94.68 136.18C94.3467 136.18 94.06 136.06 93.82 135.82C93.58 135.567 93.46 135.273 93.46 134.94C93.46 134.593 93.58 134.307 93.82 134.08C94.06 133.84 94.3467 133.72 94.68 133.72C95.0267 133.72 95.32 133.84 95.56 134.08C95.8 134.307 95.92 134.593 95.92 134.94C95.92 135.273 95.8 135.567 95.56 135.82C95.32 136.06 95.0267 136.18 94.68 136.18ZM102.915 148.18C101.915 148.18 101.009 147.947 100.195 147.48C99.3955 147.013 98.7555 146.38 98.2755 145.58C97.8088 144.78 97.5755 143.887 97.5755 142.9C97.5755 141.927 97.8021 141.047 98.2555 140.26C98.7088 139.46 99.3221 138.827 100.095 138.36C100.869 137.88 101.729 137.64 102.675 137.64C103.622 137.64 104.462 137.88 105.195 138.36C105.929 138.827 106.509 139.467 106.935 140.28C107.375 141.08 107.595 141.987 107.595 143V143.56H99.5755C99.6821 144.12 99.8888 144.62 100.195 145.06C100.515 145.5 100.915 145.847 101.395 146.1C101.889 146.353 102.422 146.48 102.995 146.48C103.489 146.48 103.962 146.407 104.415 146.26C104.882 146.1 105.269 145.873 105.575 145.58L106.855 146.84C106.255 147.293 105.635 147.633 104.995 147.86C104.369 148.073 103.675 148.18 102.915 148.18ZM99.5955 142.06H105.615C105.535 141.527 105.349 141.06 105.055 140.66C104.775 140.247 104.422 139.927 103.995 139.7C103.582 139.46 103.129 139.34 102.635 139.34C102.129 139.34 101.662 139.453 101.235 139.68C100.809 139.907 100.449 140.227 100.155 140.64C99.8755 141.04 99.6888 141.513 99.5955 142.06ZM109.5 148V137.82H111.5V138.86C112.287 138.033 113.307 137.62 114.56 137.62C115.347 137.62 116.034 137.787 116.62 138.12C117.22 138.453 117.687 138.92 118.02 139.52C118.367 140.12 118.54 140.813 118.54 141.6V148H116.54V141.94C116.54 141.14 116.314 140.513 115.86 140.06C115.42 139.593 114.8 139.36 114 139.36C113.467 139.36 112.987 139.473 112.56 139.7C112.134 139.927 111.78 140.253 111.5 140.68V148H109.5ZM124.915 148.18C123.928 148.18 123.175 147.953 122.655 147.5C122.135 147.033 121.875 146.36 121.875 145.48V139.5H119.715V137.82H121.875V135.22L123.855 134.74V137.82H126.855V139.5H123.855V145.02C123.855 145.54 123.968 145.913 124.195 146.14C124.435 146.353 124.822 146.46 125.355 146.46C125.635 146.46 125.882 146.44 126.095 146.4C126.322 146.36 126.562 146.3 126.815 146.22V147.9C126.548 147.993 126.235 148.06 125.875 148.1C125.528 148.153 125.208 148.18 124.915 148.18ZM136.588 148V135.86H131.668V134H143.608V135.86H138.688V148H136.588ZM144.188 148V137.82H146.188V139.12C146.508 138.64 146.901 138.267 147.368 138C147.848 137.72 148.388 137.58 148.988 137.58C149.401 137.593 149.741 137.653 150.008 137.76V139.56C149.821 139.48 149.628 139.427 149.428 139.4C149.228 139.36 149.028 139.34 148.828 139.34C148.241 139.34 147.721 139.5 147.268 139.82C146.814 140.127 146.454 140.58 146.188 141.18V148H144.188ZM155.413 148.2C154.626 148.2 153.933 148.033 153.333 147.7C152.733 147.367 152.266 146.9 151.933 146.3C151.6 145.687 151.433 144.987 151.433 144.2V137.82H153.413V143.86C153.413 144.66 153.64 145.293 154.093 145.76C154.56 146.227 155.18 146.46 155.953 146.46C156.5 146.46 156.986 146.347 157.413 146.12C157.84 145.88 158.186 145.547 158.453 145.12V137.82H160.453V148H158.453V146.96C157.666 147.787 156.653 148.2 155.413 148.2ZM166.321 148.2C165.441 148.2 164.614 148.073 163.841 147.82C163.081 147.553 162.421 147.18 161.861 146.7L162.961 145.38C163.481 145.793 164.014 146.113 164.561 146.34C165.121 146.553 165.687 146.66 166.261 146.66C166.981 146.66 167.567 146.52 168.021 146.24C168.474 145.96 168.701 145.593 168.701 145.14C168.701 144.767 168.567 144.473 168.301 144.26C168.034 144.047 167.621 143.9 167.061 143.82L165.221 143.56C164.207 143.413 163.447 143.1 162.941 142.62C162.434 142.14 162.181 141.5 162.181 140.7C162.181 140.087 162.347 139.553 162.681 139.1C163.014 138.633 163.481 138.273 164.081 138.02C164.681 137.753 165.381 137.62 166.181 137.62C166.914 137.62 167.621 137.727 168.301 137.94C168.981 138.153 169.634 138.487 170.261 138.94L169.241 140.26C168.681 139.887 168.134 139.613 167.601 139.44C167.081 139.267 166.554 139.18 166.021 139.18C165.407 139.18 164.914 139.313 164.541 139.58C164.167 139.833 163.981 140.167 163.981 140.58C163.981 140.953 164.107 141.247 164.361 141.46C164.627 141.66 165.061 141.8 165.661 141.88L167.501 142.14C168.514 142.287 169.281 142.6 169.801 143.08C170.321 143.547 170.581 144.18 170.581 144.98C170.581 145.593 170.394 146.147 170.021 146.64C169.647 147.12 169.141 147.5 168.501 147.78C167.861 148.06 167.134 148.2 166.321 148.2ZM176.282 148.18C175.296 148.18 174.542 147.953 174.022 147.5C173.502 147.033 173.242 146.36 173.242 145.48V139.5H171.082V137.82H173.242V135.22L175.222 134.74V137.82H178.222V139.5H175.222V145.02C175.222 145.54 175.336 145.913 175.562 146.14C175.802 146.353 176.189 146.46 176.722 146.46C177.002 146.46 177.249 146.44 177.462 146.4C177.689 146.36 177.929 146.3 178.182 146.22V147.9C177.916 147.993 177.602 148.06 177.242 148.1C176.896 148.153 176.576 148.18 176.282 148.18ZM185.775 148L182.935 137.82H184.875L186.855 145.3L189.175 137.82H190.895L193.215 145.3L195.195 137.82H197.075L194.215 148H192.295L190.015 140.54L187.715 148H185.775ZM198.504 148V137.82H200.504V148H198.504ZM199.504 136.18C199.171 136.18 198.884 136.06 198.644 135.82C198.404 135.567 198.284 135.273 198.284 134.94C198.284 134.593 198.404 134.307 198.644 134.08C198.884 133.84 199.171 133.72 199.504 133.72C199.851 133.72 200.144 133.84 200.384 134.08C200.624 134.307 200.744 134.593 200.744 134.94C200.744 135.273 200.624 135.567 200.384 135.82C200.144 136.06 199.851 136.18 199.504 136.18ZM207.22 148.18C206.233 148.18 205.48 147.953 204.96 147.5C204.44 147.033 204.18 146.36 204.18 145.48V139.5H202.02V137.82H204.18V135.22L206.16 134.74V137.82H209.16V139.5H206.16V145.02C206.16 145.54 206.273 145.913 206.5 146.14C206.74 146.353 207.126 146.46 207.66 146.46C207.94 146.46 208.186 146.44 208.4 146.4C208.626 146.36 208.866 146.3 209.12 146.22V147.9C208.853 147.993 208.54 148.06 208.18 148.1C207.833 148.153 207.513 148.18 207.22 148.18ZM210.633 148V134L212.633 133.56V138.86C213.42 138.033 214.44 137.62 215.693 137.62C216.48 137.62 217.166 137.787 217.753 138.12C218.353 138.453 218.82 138.92 219.153 139.52C219.5 140.12 219.673 140.813 219.673 141.6V148H217.673V141.94C217.673 141.14 217.446 140.513 216.993 140.06C216.54 139.593 215.92 139.36 215.133 139.36C214.6 139.36 214.12 139.473 213.693 139.7C213.266 139.927 212.913 140.253 212.633 140.68V148H210.633ZM226.16 148V137.82H228.16V138.8C228.92 138.013 229.874 137.62 231.02 137.62C231.714 137.62 232.327 137.773 232.86 138.08C233.407 138.387 233.84 138.8 234.16 139.32C234.587 138.76 235.087 138.34 235.66 138.06C236.234 137.767 236.88 137.62 237.6 137.62C238.36 137.62 239.02 137.787 239.58 138.12C240.154 138.453 240.6 138.92 240.92 139.52C241.254 140.12 241.42 140.813 241.42 141.6V148H239.42V141.94C239.42 141.14 239.207 140.513 238.78 140.06C238.367 139.593 237.8 139.36 237.08 139.36C236.587 139.36 236.14 139.473 235.74 139.7C235.34 139.927 234.994 140.273 234.7 140.74C234.727 140.873 234.747 141.013 234.76 141.16C234.774 141.307 234.78 141.453 234.78 141.6V148H232.8V141.94C232.8 141.14 232.587 140.513 232.16 140.06C231.747 139.593 231.18 139.36 230.46 139.36C229.98 139.36 229.547 139.467 229.16 139.68C228.774 139.88 228.44 140.187 228.16 140.6V148H226.16ZM248.599 148.18C247.599 148.18 246.692 147.947 245.879 147.48C245.079 147.013 244.439 146.38 243.959 145.58C243.492 144.78 243.259 143.887 243.259 142.9C243.259 141.927 243.486 141.047 243.939 140.26C244.392 139.46 245.006 138.827 245.779 138.36C246.552 137.88 247.412 137.64 248.359 137.64C249.306 137.64 250.146 137.88 250.879 138.36C251.612 138.827 252.192 139.467 252.619 140.28C253.059 141.08 253.279 141.987 253.279 143V143.56H245.259C245.366 144.12 245.572 144.62 245.879 145.06C246.199 145.5 246.599 145.847 247.079 146.1C247.572 146.353 248.106 146.48 248.679 146.48C249.172 146.48 249.646 146.407 250.099 146.26C250.566 146.1 250.952 145.873 251.259 145.58L252.539 146.84C251.939 147.293 251.319 147.633 250.679 147.86C250.052 148.073 249.359 148.18 248.599 148.18ZM245.279 142.06H251.299C251.219 141.527 251.032 141.06 250.739 140.66C250.459 140.247 250.106 139.927 249.679 139.7C249.266 139.46 248.812 139.34 248.319 139.34C247.812 139.34 247.346 139.453 246.919 139.68C246.492 139.907 246.132 140.227 245.839 140.64C245.559 141.04 245.372 141.513 245.279 142.06Z" fill="#FDFDFD"/>
</svg>
