<svg width="134" height="20" viewBox="0 0 134 20" fill="none" xmlns="http://www.w3.org/2000/svg">
<path d="M8.14 15.22C7.1 15.22 6.13333 15.04 5.24 14.68C4.34667 14.3067 3.56 13.7933 2.88 13.14C2.2 12.4733 1.66667 11.7067 1.28 10.84C0.906667 9.96 0.72 9.01333 0.72 8C0.72 6.98667 0.906667 6.04667 1.28 5.18C1.66667 4.3 2.19333 3.53333 2.86 2.88C3.52667 2.21333 4.30667 1.7 5.2 1.34C6.10667 0.966666 7.07333 0.779999 8.1 0.779999C9.26 0.779999 10.3533 1.01333 11.38 1.48C12.4067 1.93333 13.2533 2.57333 13.92 3.4L11.9 5.26C11.42 4.66 10.8533 4.20667 10.2 3.9C9.54667 3.59333 8.84667 3.44 8.1 3.44C7.47333 3.44 6.89333 3.56 6.36 3.8C5.82667 4.02667 5.36 4.34667 4.96 4.76C4.56 5.16 4.24667 5.64 4.02 6.2C3.80667 6.74667 3.7 7.34667 3.7 8C3.7 8.65333 3.81333 9.26 4.04 9.82C4.26667 10.38 4.58 10.8667 4.98 11.28C5.39333 11.68 5.86667 12 6.4 12.24C6.94667 12.4667 7.54 12.58 8.18 12.58C8.84667 12.58 9.44667 12.46 9.98 12.22C10.5133 11.9667 10.96 11.62 11.32 11.18C11.6933 10.7267 11.94 10.22 12.06 9.66H7.92V7.14H15.16V8.02C15.16 9.06 14.98 10.02 14.62 10.9C14.2733 11.7667 13.7867 12.5267 13.16 13.18C12.5333 13.82 11.7933 14.32 10.94 14.68C10.0867 15.04 9.15333 15.22 8.14 15.22ZM20.2789 15.18C19.5322 15.18 18.8722 15.0467 18.2989 14.78C17.7256 14.5 17.2789 14.12 16.9589 13.64C16.6389 13.16 16.4789 12.6067 16.4789 11.98C16.4789 10.98 16.8522 10.2067 17.5989 9.66C18.3589 9.1 19.3989 8.82 20.7189 8.82C21.6256 8.82 22.4789 8.96 23.2789 9.24V8.48C23.2789 7.88 23.0922 7.42667 22.7189 7.12C22.3456 6.81333 21.7989 6.66 21.0789 6.66C20.6389 6.66 20.1656 6.73333 19.6589 6.88C19.1522 7.01333 18.5656 7.22667 17.8989 7.52L16.8989 5.5C17.7256 5.12667 18.5122 4.84667 19.2589 4.66C20.0189 4.47333 20.7789 4.38 21.5389 4.38C22.9389 4.38 24.0256 4.72 24.7989 5.4C25.5856 6.06667 25.9789 7.01333 25.9789 8.24V15H23.2789V14.26C22.8522 14.58 22.3922 14.8133 21.8989 14.96C21.4056 15.1067 20.8656 15.18 20.2789 15.18ZM19.0789 11.92C19.0789 12.32 19.2522 12.64 19.5989 12.88C19.9456 13.1067 20.4056 13.22 20.9789 13.22C21.4322 13.22 21.8522 13.1667 22.2389 13.06C22.6256 12.94 22.9722 12.7667 23.2789 12.54V11.02C22.9456 10.8867 22.5989 10.7867 22.2389 10.72C21.8789 10.6533 21.4922 10.62 21.0789 10.62C20.4522 10.62 19.9589 10.74 19.5989 10.98C19.2522 11.2067 19.0789 11.52 19.0789 11.92ZM28.0527 15V0.999999L30.7927 0.539999V5.42C31.6193 4.76667 32.5927 4.44 33.7127 4.44C34.6993 4.44 35.5927 4.68 36.3927 5.16C37.1927 5.64 37.826 6.28667 38.2927 7.1C38.7727 7.9 39.0127 8.8 39.0127 9.8C39.0127 10.8 38.7727 11.7067 38.2927 12.52C37.8127 13.32 37.166 13.96 36.3527 14.44C35.5393 14.9067 34.6327 15.14 33.6327 15.14C33.1127 15.14 32.606 15.0667 32.1127 14.92C31.6193 14.7733 31.166 14.56 30.7527 14.28V15H28.0527ZM33.2727 12.82C33.846 12.82 34.3593 12.6867 34.8127 12.42C35.2793 12.1533 35.646 11.7933 35.9127 11.34C36.1793 10.8867 36.3127 10.3733 36.3127 9.8C36.3127 9.22667 36.1793 8.71333 35.9127 8.26C35.646 7.79333 35.2793 7.43333 34.8127 7.18C34.3593 6.91333 33.846 6.78 33.2727 6.78C32.766 6.78 32.2993 6.86667 31.8727 7.04C31.4593 7.2 31.0993 7.44667 30.7927 7.78V11.84C31.086 12.1467 31.446 12.3867 31.8727 12.56C32.3127 12.7333 32.7793 12.82 33.2727 12.82ZM40.6698 15V4.58H43.4098V5.74C43.7432 5.28667 44.1432 4.94 44.6098 4.7C45.0765 4.46 45.6032 4.34 46.1898 4.34C46.6965 4.35333 47.0765 4.43333 47.3298 4.58V6.98C47.1298 6.88667 46.9098 6.82 46.6698 6.78C46.4298 6.72667 46.1832 6.7 45.9298 6.7C45.3965 6.7 44.9098 6.83333 44.4698 7.1C44.0298 7.36667 43.6765 7.74667 43.4098 8.24V15H40.6698ZM48.8339 15V4.58H51.5739V15H48.8339ZM50.1939 3.34C49.7672 3.34 49.4006 3.18667 49.0939 2.88C48.7872 2.57333 48.6339 2.20667 48.6339 1.78C48.6339 1.34 48.7872 0.973333 49.0939 0.68C49.4006 0.373333 49.7672 0.22 50.1939 0.22C50.6339 0.22 51.0006 0.373333 51.2939 0.68C51.6006 0.973333 51.7539 1.34 51.7539 1.78C51.7539 2.20667 51.6006 2.57333 51.2939 2.88C51.0006 3.18667 50.6339 3.34 50.1939 3.34ZM58.8167 15.2C57.7767 15.2 56.8301 14.96 55.9767 14.48C55.1367 14 54.4701 13.3533 53.9767 12.54C53.4834 11.7267 53.2367 10.8133 53.2367 9.8C53.2367 8.78667 53.4701 7.87333 53.9367 7.06C54.4167 6.24667 55.0634 5.6 55.8767 5.12C56.6901 4.64 57.5967 4.4 58.5967 4.4C59.5967 4.4 60.4834 4.64667 61.2567 5.14C62.0301 5.63333 62.6367 6.3 63.0767 7.14C63.5301 7.98 63.7567 8.93333 63.7567 10V10.72H56.0367C56.1567 11.1333 56.3501 11.5067 56.6167 11.84C56.8967 12.1733 57.2367 12.4333 57.6367 12.62C58.0501 12.8067 58.4901 12.9 58.9567 12.9C59.4234 12.9 59.8501 12.8267 60.2367 12.68C60.6367 12.5333 60.9767 12.3267 61.2567 12.06L63.0567 13.7C62.4167 14.22 61.7567 14.6 61.0767 14.84C60.4101 15.08 59.6567 15.2 58.8167 15.2ZM55.9967 8.76H61.0567C60.9634 8.34667 60.7901 7.98667 60.5367 7.68C60.2967 7.36 60.0034 7.11333 59.6567 6.94C59.3234 6.75333 58.9501 6.66 58.5367 6.66C58.1101 6.66 57.7234 6.74667 57.3767 6.92C57.0301 7.09333 56.7367 7.34 56.4967 7.66C56.2701 7.96667 56.1034 8.33333 55.9967 8.76ZM65.4355 15V0.999999L68.1755 0.539999V15H65.4355ZM74.5217 15V0.999999H77.4217V6.64H83.8617V0.999999H86.7617V15H83.8617V9.26H77.4217V15H74.5217ZM92.2516 15.18C91.5049 15.18 90.8449 15.0467 90.2716 14.78C89.6982 14.5 89.2516 14.12 88.9316 13.64C88.6116 13.16 88.4516 12.6067 88.4516 11.98C88.4516 10.98 88.8249 10.2067 89.5716 9.66C90.3316 9.1 91.3716 8.82 92.6916 8.82C93.5982 8.82 94.4516 8.96 95.2516 9.24V8.48C95.2516 7.88 95.0649 7.42667 94.6916 7.12C94.3182 6.81333 93.7716 6.66 93.0516 6.66C92.6116 6.66 92.1382 6.73333 91.6316 6.88C91.1249 7.01333 90.5382 7.22667 89.8716 7.52L88.8716 5.5C89.6982 5.12667 90.4849 4.84667 91.2316 4.66C91.9916 4.47333 92.7516 4.38 93.5116 4.38C94.9116 4.38 95.9982 4.72 96.7716 5.4C97.5582 6.06667 97.9516 7.01333 97.9516 8.24V15H95.2516V14.26C94.8249 14.58 94.3649 14.8133 93.8716 14.96C93.3782 15.1067 92.8382 15.18 92.2516 15.18ZM91.0516 11.92C91.0516 12.32 91.2249 12.64 91.5716 12.88C91.9182 13.1067 92.3782 13.22 92.9516 13.22C93.4049 13.22 93.8249 13.1667 94.2116 13.06C94.5982 12.94 94.9449 12.7667 95.2516 12.54V11.02C94.9182 10.8867 94.5716 10.7867 94.2116 10.72C93.8516 10.6533 93.4649 10.62 93.0516 10.62C92.4249 10.62 91.9316 10.74 91.5716 10.98C91.2249 11.2067 91.0516 11.52 91.0516 11.92ZM100.025 15V4.58H102.765V5.44C103.552 4.73333 104.525 4.38 105.685 4.38C106.499 4.38 107.212 4.56 107.825 4.92C108.452 5.26667 108.939 5.75333 109.285 6.38C109.632 6.99333 109.805 7.71333 109.805 8.54V15H107.065V8.94C107.065 8.26 106.872 7.72667 106.485 7.34C106.099 6.94 105.572 6.74 104.905 6.74C104.439 6.74 104.025 6.83333 103.665 7.02C103.305 7.19333 103.005 7.44667 102.765 7.78V15H100.025ZM111.881 15V4.58H114.621V5.44C115.407 4.73333 116.381 4.38 117.541 4.38C118.354 4.38 119.067 4.56 119.681 4.92C120.307 5.26667 120.794 5.75333 121.141 6.38C121.487 6.99333 121.661 7.71333 121.661 8.54V15H118.921V8.94C118.921 8.26 118.727 7.72667 118.341 7.34C117.954 6.94 117.427 6.74 116.761 6.74C116.294 6.74 115.881 6.83333 115.521 7.02C115.161 7.19333 114.861 7.44667 114.621 7.78V15H111.881ZM124.561 19.3C124.321 19.3 124.088 19.2867 123.861 19.26C123.648 19.2467 123.468 19.2267 123.321 19.2V16.84C123.588 16.8933 123.908 16.92 124.281 16.92C125.281 16.92 125.974 16.4467 126.361 15.5L126.521 15.1L122.461 4.58H125.481L128.081 11.68L131.021 4.58H133.981L129.181 15.84C128.821 16.68 128.428 17.3533 128.001 17.86C127.574 18.3667 127.081 18.7333 126.521 18.96C125.974 19.1867 125.321 19.3 124.561 19.3Z" fill="#91FF02"/>
</svg>
