<svg width="631" height="50" viewBox="0 0 631 50" fill="none" xmlns="http://www.w3.org/2000/svg">
<line y1="24.5" x2="40" y2="24.5" stroke="white"/>
<path d="M64.14 32.22C63.1 32.22 62.1333 32.04 61.24 31.68C60.3467 31.3067 59.56 30.7933 58.88 30.14C58.2 29.4733 57.6667 28.7067 57.28 27.84C56.9067 26.96 56.72 26.0133 56.72 25C56.72 23.9867 56.9067 23.0467 57.28 22.18C57.6667 21.3 58.1933 20.5333 58.86 19.88C59.5267 19.2133 60.3067 18.7 61.2 18.34C62.1067 17.9667 63.0733 17.78 64.1 17.78C65.26 17.78 66.3533 18.0133 67.38 18.48C68.4067 18.9333 69.2533 19.5733 69.92 20.4L67.9 22.26C67.42 21.66 66.8533 21.2067 66.2 20.9C65.5467 20.5933 64.8467 20.44 64.1 20.44C63.4733 20.44 62.8933 20.56 62.36 20.8C61.8267 21.0267 61.36 21.3467 60.96 21.76C60.56 22.16 60.2467 22.64 60.02 23.2C59.8067 23.7467 59.7 24.3467 59.7 25C59.7 25.6533 59.8133 26.26 60.04 26.82C60.2667 27.38 60.58 27.8667 60.98 28.28C61.3933 28.68 61.8667 29 62.4 29.24C62.9467 29.4667 63.54 29.58 64.18 29.58C64.8467 29.58 65.4467 29.46 65.98 29.22C66.5133 28.9667 66.96 28.62 67.32 28.18C67.6933 27.7267 67.94 27.22 68.06 26.66H63.92V24.14H71.16V25.02C71.16 26.06 70.98 27.02 70.62 27.9C70.2733 28.7667 69.7867 29.5267 69.16 30.18C68.5333 30.82 67.7933 31.32 66.94 31.68C66.0867 32.04 65.1533 32.22 64.14 32.22ZM76.2789 32.18C75.5322 32.18 74.8722 32.0467 74.2989 31.78C73.7256 31.5 73.2789 31.12 72.9589 30.64C72.6389 30.16 72.4789 29.6067 72.4789 28.98C72.4789 27.98 72.8522 27.2067 73.5989 26.66C74.3589 26.1 75.3989 25.82 76.7189 25.82C77.6256 25.82 78.4789 25.96 79.2789 26.24V25.48C79.2789 24.88 79.0922 24.4267 78.7189 24.12C78.3456 23.8133 77.7989 23.66 77.0789 23.66C76.6389 23.66 76.1656 23.7333 75.6589 23.88C75.1522 24.0133 74.5656 24.2267 73.8989 24.52L72.8989 22.5C73.7256 22.1267 74.5122 21.8467 75.2589 21.66C76.0189 21.4733 76.7789 21.38 77.5389 21.38C78.9389 21.38 80.0256 21.72 80.7989 22.4C81.5856 23.0667 81.9789 24.0133 81.9789 25.24V32H79.2789V31.26C78.8522 31.58 78.3922 31.8133 77.8989 31.96C77.4056 32.1067 76.8656 32.18 76.2789 32.18ZM75.0789 28.92C75.0789 29.32 75.2522 29.64 75.5989 29.88C75.9456 30.1067 76.4056 30.22 76.9789 30.22C77.4322 30.22 77.8522 30.1667 78.2389 30.06C78.6256 29.94 78.9722 29.7667 79.2789 29.54V28.02C78.9456 27.8867 78.5989 27.7867 78.2389 27.72C77.8789 27.6533 77.4922 27.62 77.0789 27.62C76.4522 27.62 75.9589 27.74 75.5989 27.98C75.2522 28.2067 75.0789 28.52 75.0789 28.92ZM84.0527 32V18L86.7927 17.54V22.42C87.6193 21.7667 88.5927 21.44 89.7127 21.44C90.6993 21.44 91.5927 21.68 92.3927 22.16C93.1927 22.64 93.826 23.2867 94.2927 24.1C94.7727 24.9 95.0127 25.8 95.0127 26.8C95.0127 27.8 94.7727 28.7067 94.2927 29.52C93.8127 30.32 93.166 30.96 92.3527 31.44C91.5393 31.9067 90.6327 32.14 89.6327 32.14C89.1127 32.14 88.606 32.0667 88.1127 31.92C87.6193 31.7733 87.166 31.56 86.7527 31.28V32H84.0527ZM89.2727 29.82C89.846 29.82 90.3593 29.6867 90.8127 29.42C91.2793 29.1533 91.646 28.7933 91.9127 28.34C92.1793 27.8867 92.3127 27.3733 92.3127 26.8C92.3127 26.2267 92.1793 25.7133 91.9127 25.26C91.646 24.7933 91.2793 24.4333 90.8127 24.18C90.3593 23.9133 89.846 23.78 89.2727 23.78C88.766 23.78 88.2993 23.8667 87.8727 24.04C87.4593 24.2 87.0993 24.4467 86.7927 24.78V28.84C87.086 29.1467 87.446 29.3867 87.8727 29.56C88.3127 29.7333 88.7793 29.82 89.2727 29.82ZM96.6698 32V21.58H99.4098V22.74C99.7432 22.2867 100.143 21.94 100.61 21.7C101.077 21.46 101.603 21.34 102.19 21.34C102.697 21.3533 103.077 21.4333 103.33 21.58V23.98C103.13 23.8867 102.91 23.82 102.67 23.78C102.43 23.7267 102.183 23.7 101.93 23.7C101.397 23.7 100.91 23.8333 100.47 24.1C100.03 24.3667 99.6765 24.7467 99.4098 25.24V32H96.6698ZM104.834 32V21.58H107.574V32H104.834ZM106.194 20.34C105.767 20.34 105.401 20.1867 105.094 19.88C104.787 19.5733 104.634 19.2067 104.634 18.78C104.634 18.34 104.787 17.9733 105.094 17.68C105.401 17.3733 105.767 17.22 106.194 17.22C106.634 17.22 107.001 17.3733 107.294 17.68C107.601 17.9733 107.754 18.34 107.754 18.78C107.754 19.2067 107.601 19.5733 107.294 19.88C107.001 20.1867 106.634 20.34 106.194 20.34ZM114.817 32.2C113.777 32.2 112.83 31.96 111.977 31.48C111.137 31 110.47 30.3533 109.977 29.54C109.483 28.7267 109.237 27.8133 109.237 26.8C109.237 25.7867 109.47 24.8733 109.937 24.06C110.417 23.2467 111.063 22.6 111.877 22.12C112.69 21.64 113.597 21.4 114.597 21.4C115.597 21.4 116.483 21.6467 117.257 22.14C118.03 22.6333 118.637 23.3 119.077 24.14C119.53 24.98 119.757 25.9333 119.757 27V27.72H112.037C112.157 28.1333 112.35 28.5067 112.617 28.84C112.897 29.1733 113.237 29.4333 113.637 29.62C114.05 29.8067 114.49 29.9 114.957 29.9C115.423 29.9 115.85 29.8267 116.237 29.68C116.637 29.5333 116.977 29.3267 117.257 29.06L119.057 30.7C118.417 31.22 117.757 31.6 117.077 31.84C116.41 32.08 115.657 32.2 114.817 32.2ZM111.997 25.76H117.057C116.963 25.3467 116.79 24.9867 116.537 24.68C116.297 24.36 116.003 24.1133 115.657 23.94C115.323 23.7533 114.95 23.66 114.537 23.66C114.11 23.66 113.723 23.7467 113.377 23.92C113.03 24.0933 112.737 24.34 112.497 24.66C112.27 24.9667 112.103 25.3333 111.997 25.76ZM121.435 32V18L124.175 17.54V32H121.435ZM130.522 32V18H133.422V23.64H139.862V18H142.762V32H139.862V26.26H133.422V32H130.522ZM148.252 32.18C147.505 32.18 146.845 32.0467 146.272 31.78C145.698 31.5 145.252 31.12 144.932 30.64C144.612 30.16 144.452 29.6067 144.452 28.98C144.452 27.98 144.825 27.2067 145.572 26.66C146.332 26.1 147.372 25.82 148.692 25.82C149.598 25.82 150.452 25.96 151.252 26.24V25.48C151.252 24.88 151.065 24.4267 150.692 24.12C150.318 23.8133 149.772 23.66 149.052 23.66C148.612 23.66 148.138 23.7333 147.632 23.88C147.125 24.0133 146.538 24.2267 145.872 24.52L144.872 22.5C145.698 22.1267 146.485 21.8467 147.232 21.66C147.992 21.4733 148.752 21.38 149.512 21.38C150.912 21.38 151.998 21.72 152.772 22.4C153.558 23.0667 153.952 24.0133 153.952 25.24V32H151.252V31.26C150.825 31.58 150.365 31.8133 149.872 31.96C149.378 32.1067 148.838 32.18 148.252 32.18ZM147.052 28.92C147.052 29.32 147.225 29.64 147.572 29.88C147.918 30.1067 148.378 30.22 148.952 30.22C149.405 30.22 149.825 30.1667 150.212 30.06C150.598 29.94 150.945 29.7667 151.252 29.54V28.02C150.918 27.8867 150.572 27.7867 150.212 27.72C149.852 27.6533 149.465 27.62 149.052 27.62C148.425 27.62 147.932 27.74 147.572 27.98C147.225 28.2067 147.052 28.52 147.052 28.92ZM156.025 32V21.58H158.765V22.44C159.552 21.7333 160.525 21.38 161.685 21.38C162.499 21.38 163.212 21.56 163.825 21.92C164.452 22.2667 164.939 22.7533 165.285 23.38C165.632 23.9933 165.805 24.7133 165.805 25.54V32H163.065V25.94C163.065 25.26 162.872 24.7267 162.485 24.34C162.099 23.94 161.572 23.74 160.905 23.74C160.439 23.74 160.025 23.8333 159.665 24.02C159.305 24.1933 159.005 24.4467 158.765 24.78V32H156.025ZM167.881 32V21.58H170.621V22.44C171.407 21.7333 172.381 21.38 173.541 21.38C174.354 21.38 175.067 21.56 175.681 21.92C176.307 22.2667 176.794 22.7533 177.141 23.38C177.487 23.9933 177.661 24.7133 177.661 25.54V32H174.921V25.94C174.921 25.26 174.727 24.7267 174.341 24.34C173.954 23.94 173.427 23.74 172.761 23.74C172.294 23.74 171.881 23.8333 171.521 24.02C171.161 24.1933 170.861 24.4467 170.621 24.78V32H167.881ZM180.561 36.3C180.321 36.3 180.088 36.2867 179.861 36.26C179.648 36.2467 179.468 36.2267 179.321 36.2V33.84C179.588 33.8933 179.908 33.92 180.281 33.92C181.281 33.92 181.974 33.4467 182.361 32.5L182.521 32.1L178.461 21.58H181.481L184.081 28.68L187.021 21.58H189.981L185.181 32.84C184.821 33.68 184.428 34.3533 184.001 34.86C183.574 35.3667 183.081 35.7333 182.521 35.96C181.974 36.1867 181.321 36.3 180.561 36.3Z" fill="#91FF02"/>
</svg>
