<svg width="106" height="48" viewBox="0 0 106 48" fill="none" xmlns="http://www.w3.org/2000/svg">
<path d="M6.34726 20.1078C11.1172 18.4637 11.9291 14.1809 11.3201 10.2432C11.3201 10.1012 11.4419 9.99968 11.5637 10.0403C16.1306 12.273 21.2659 17.1444 21.2659 24.4514C21.2659 30.0535 16.9222 35.0061 10.6097 35.0061C8.35724 35.1085 6.13479 34.4579 4.29315 33.1569C2.45151 31.8559 1.09556 29.9787 0.439325 27.8215C-0.216911 25.6643 -0.136064 23.35 0.669105 21.2439C1.47427 19.1377 2.95791 17.3597 4.88585 16.1904C5.00763 16.1092 5.17001 16.1904 5.17001 16.3325C5.2309 17.0835 5.43388 18.9711 6.26607 20.1078H6.34726Z" fill="url(#paint0_radial_18411_3346)"/>
<path d="M34.7032 30.5618L35.0483 30.1559L36.124 33.5659L35.9819 33.7079C35.17 34.459 33.9522 34.8446 32.3893 34.8446H32.3284C30.9076 34.8446 29.7912 34.4387 29.0199 33.6877C28.2486 32.9164 27.8427 31.7594 27.8427 30.298V21.0018H25.1025V17.2467H27.8427V12.7204H32.0645V17.2467H35.4136V21.0018H32.0443V29.3846C32.0443 29.7703 32.1457 31.0084 33.323 31.0084C33.9319 31.0084 34.5002 30.7851 34.7032 30.5416V30.5618ZM36.9359 34.459V17.267H41.1578V34.459H36.9359ZM39.0266 10.2441C39.5275 10.2442 40.0172 10.3925 40.434 10.6704C40.8508 10.9483 41.176 11.3433 41.3686 11.8058C41.5612 12.2682 41.6126 12.7773 41.5164 13.2689C41.4201 13.7605 41.1805 14.2126 40.8277 14.5682C40.4749 14.9238 40.0247 15.1671 39.5339 15.2672C39.043 15.3674 38.5335 15.3201 38.0696 15.1311C37.6057 14.9422 37.208 14.6202 36.9268 14.2056C36.6456 13.7911 36.4934 13.3025 36.4894 12.8016C36.4894 11.4214 37.6463 10.2441 39.0266 10.2441ZM52.504 16.8408C56.1576 16.8408 58.167 18.8299 58.167 22.4632V34.4387H53.9451V23.4781C53.864 21.5295 52.9303 20.6364 50.9411 20.6364C49.155 20.6364 47.7138 21.7325 46.9831 22.6662V34.4387H42.7613V17.2873H46.9831V19.1141C48.201 17.9369 50.1495 16.8814 52.504 16.8814V16.8408ZM72.2128 19.0532V10.9748H76.4347V34.4793H72.2128V32.6931C71.5668 33.3745 70.7896 33.9181 69.928 34.2913C69.0665 34.6646 68.1383 34.8597 67.1993 34.8649C62.5918 34.8649 59.5066 31.252 59.5066 25.8731C59.5066 20.474 62.5918 16.8611 67.1993 16.8611C68.1403 16.8654 69.0705 17.0621 69.9326 17.439C70.7948 17.816 71.5707 18.3653 72.2128 19.0532ZM72.2128 22.6865C71.7423 22.0737 71.1411 21.5735 70.4529 21.2224C69.7647 20.8712 69.0068 20.678 68.2345 20.6567C65.6161 20.6567 63.8706 22.7473 63.8706 25.8731C63.8706 28.9787 65.6161 31.0693 68.2345 31.0693C69.7568 31.0693 71.4212 30.2574 72.2128 29.0801V22.6865ZM86.2992 16.8611C91.2924 16.8611 94.7632 20.7176 94.7632 26.1979V27.3549H81.9962C82.4224 29.7703 84.3304 31.3129 86.9284 31.3129C88.5725 31.3129 90.379 30.6024 91.4141 29.5673L91.6983 29.3237L93.7078 32.2059L93.5048 32.3886C91.6029 34.075 89.1234 34.962 86.5834 34.8649C81.306 34.8649 77.5916 31.1505 77.5916 25.8529C77.5506 24.6832 77.7463 23.5174 78.167 22.4253C78.5878 21.3332 79.2248 20.3374 80.0399 19.4976C80.8551 18.6578 81.8315 17.9914 82.9106 17.5383C83.9897 17.0853 85.1492 16.8549 86.3195 16.8611H86.2992ZM81.9759 24.1682H90.6428C90.3993 21.5904 88.2681 20.4131 86.2992 20.4131C83.3358 20.4131 82.2194 22.6459 81.9759 24.1885V24.1682ZM104.973 16.8611H105.277V21.1236L104.912 21.0627C104.607 21.0018 104.222 20.9612 103.836 20.9612C102.476 20.9612 100.589 21.9152 99.8782 22.93V34.4387H95.6563V17.267H99.8985V19.175C101.299 17.7136 103.146 16.8611 104.973 16.8611Z" fill="#424242"/>
<defs>
<radialGradient id="paint0_radial_18411_3346" cx="0" cy="0" r="1" gradientUnits="userSpaceOnUse" gradientTransform="translate(10.6329 35.0166) scale(21.2659 24.9853)">
<stop stop-color="#FF7854"/>
<stop offset="1" stop-color="#FD267D"/>
</radialGradient>
</defs>
</svg>
